<?xml version="1.0" encoding="utf-8"?>
<svg id="master-artboard" viewBox="0 0 827.7840576171875 205.91676330566406" version="1.1" xmlns="http://www.w3.org/2000/svg" x="0px" y="0px" style="enable-background:new 0 0 1400 980;" width="827.7840576171875px" height="205.91676330566406px"><defs><linearGradient data-v-fde0c5aa="" gradientTransform="rotate(25)" id="bf42fb40-0545-4e20-a693-56d4fdc901c2" x1="0%" y1="0%" x2="100%" y2="0%"><stop data-v-fde0c5aa="" offset="0%" stop-color="#288642" stop-opacity="1"/><stop data-v-fde0c5aa="" offset="100%" stop-color="#27FDFD" stop-opacity="1"/></linearGradient></defs><g transform="matrix(3.622347354888916, 0, 0, 3.622347354888916, -129.61761474609375, -441.73231506347656)"><path d="M 0 0 H 300 V 300 H 0 V 0 Z" data-v-fde0c5aa="" fill="transparent" class="logo-background-square"/><g data-v-fde0c5aa="" id="9efa2bd3-ec77-4391-9a0a-5ed516286e8e" fill="#000000" transform="matrix(2.282196044921875,0,0,2.282196044921875,97.3667933048796,128.43057372149076)"><path d="M6.02 8.03C7.33 7.75 8.29 6.60 8.29 5.18C8.29 3.46 6.97 2.10 5.27 2.10L1.16 2.10L1.16 12.60L2.87 12.60L2.87 8.19L4.32 8.19L7.11 12.60L9.03 12.60ZM2.87 6.70L2.87 3.69L5.06 3.69C5.95 3.69 6.62 4.31 6.62 5.20C6.62 6.09 5.95 6.70 5.06 6.70ZM17.17 9.07C17.13 6.97 15.59 5.46 13.48 5.46C11.34 5.46 9.73 7.00 9.73 9.10C9.73 11.20 11.32 12.74 13.49 12.74C15.30 12.74 16.64 11.67 17.05 10.15L15.38 10.15C15.09 10.89 14.39 11.36 13.49 11.36C12.32 11.36 11.50 10.54 11.41 9.36L17.15 9.36ZM13.49 6.86C14.40 6.86 15.05 7.37 15.35 8.17L11.55 8.17C11.87 7.39 12.55 6.86 13.49 6.86ZM22.21 12.74C24.06 12.74 25.46 11.60 25.85 9.99L24.12 9.99C23.78 10.71 23.07 11.20 22.21 11.20C21.04 11.20 20.11 10.29 20.11 9.10C20.11 7.91 21.04 7.00 22.21 7.00C23.07 7.00 23.78 7.49 24.12 8.21L25.85 8.21C25.46 6.60 24.06 5.46 22.21 5.46C20.04 5.46 18.45 7.05 18.45 9.10C18.45 11.15 20.04 12.74 22.21 12.74ZM28.32 4.36C28.86 4.36 29.31 3.90 29.31 3.38C29.31 2.82 28.86 2.38 28.32 2.38C27.77 2.38 27.32 2.82 27.32 3.38C27.32 3.90 27.77 4.36 28.32 4.36ZM27.49 12.60L29.14 12.60L29.14 5.60L27.49 5.60ZM35.46 5.46C34.56 5.46 33.79 5.79 33.20 6.34L33.20 5.60L31.54 5.60L31.54 16.80L33.20 16.80L33.20 11.87C33.79 12.41 34.56 12.74 35.46 12.74C37.43 12.74 39.01 11.13 39.01 9.10C39.01 7.07 37.43 5.46 35.46 5.46ZM35.25 11.20C34.07 11.20 33.15 10.27 33.15 9.10C33.15 7.93 34.07 7.00 35.25 7.00C36.42 7.00 37.35 7.93 37.35 9.10C37.35 10.27 36.42 11.20 35.25 11.20ZM47.77 9.07C47.74 6.97 46.20 5.46 44.08 5.46C41.95 5.46 40.34 7.00 40.34 9.10C40.34 11.20 41.93 12.74 44.10 12.74C45.90 12.74 47.25 11.67 47.65 10.15L45.99 10.15C45.69 10.89 44.99 11.36 44.10 11.36C42.93 11.36 42.10 10.54 42.02 9.36L47.76 9.36ZM44.10 6.86C45.01 6.86 45.66 7.37 45.95 8.17L42.16 8.17C42.47 7.39 43.16 6.86 44.10 6.86ZM57.17 11.24C56.84 11.24 56.53 11.06 56.53 10.45L56.53 5.60L54.86 5.60L54.86 6.34C54.27 5.79 53.50 5.46 52.61 5.46C50.63 5.46 49.05 7.07 49.05 9.10C49.05 11.13 50.63 12.74 52.61 12.74C53.62 12.74 54.51 12.29 55.11 11.57C55.46 12.27 56.14 12.74 57.00 12.74C57.21 12.74 57.40 12.69 57.56 12.60L57.56 11.24ZM52.82 11.20C51.64 11.20 50.72 10.27 50.72 9.10C50.72 7.93 51.64 7.00 52.82 7.00C53.97 7.00 54.92 7.93 54.92 9.10C54.92 10.27 53.97 11.20 52.82 11.20ZM60.94 12.74C62.34 12.74 63.33 11.85 63.33 10.59C63.33 9.26 62.21 8.73 61.27 8.35C60.59 8.07 60.25 7.93 60.25 7.49C60.25 7.09 60.53 6.86 61.01 6.86C61.46 6.86 61.86 7.07 62.05 7.39L63.11 6.53C62.74 5.93 61.84 5.46 60.90 5.46C59.59 5.46 58.61 6.35 58.61 7.58C58.61 8.82 59.64 9.35 60.69 9.73C61.43 10.03 61.76 10.22 61.76 10.62C61.76 11.06 61.37 11.31 60.88 11.31C60.38 11.31 59.82 11.06 59.61 10.52L58.26 11.13C58.59 12.09 59.76 12.74 60.94 12.74ZM69.48 5.60L67.55 10.78L65.56 5.60L63.79 5.60L66.68 12.72L65.01 16.80L66.76 16.80L71.26 5.60Z"/></g><g data-v-fde0c5aa="" id="269f3c27-1886-45ff-a1a6-d67dc562bbc1" stroke="none" fill="url(#bf42fb40-0545-4e20-a693-56d4fdc901c2)" transform="matrix(0.6518827676773071,0,0,0.6518827676773071,30.91438411663659,117.25689690688667)"><path d="M33.077 27.942c.308.153.655.326 1.019.509l2.296 1.126c-.355.492-.624.957-1.707 2.325-2.138 2.7-6.077 7.674-5.849 11.137 1.032-.202 3.505-1.689 5.196-2.708 3.144-1.893 6.113-3.681 8.296-3.681h.021c3.32.019 4.741 4.207 5.995 7.902.39 1.147.937 2.764 1.39 3.533.29-1.005.449-3.068.554-4.402.16-2.062.312-4.011.776-5.299 1.152-3.18 7.52-1.705 16.391.726.699.192 1.356.372 1.94.526-1.333-1.716-3.746-4.327-5.234-5.937-1.702-1.842-3.068-3.564-3.676-4.433.51-.333 1.079-.684 1.541-.969 2.598-1.598 4.086-2.562 4.461-3.797a1.757 1.757 0 0 0-.2-1.457c-.505-.783-1.456-.909-1.77-.951-3.062-.406-12.854 1.427-16.77 2.67.408-4.805 1.972-8.129-.823-12.009-1.954-2.711-4.21.099-2.819 2.03 1.934 2.683.659 4.966.126 10.278-.176-.076-.367-.16-.57-.25-1.188-.526-2.81-1.245-5.365-2.023-1.621-.494-3.142-.837-4.518-1.02-3.556-.471-5.159.257-5.443.408l-.421.223-.218.423a1.753 1.753 0 0 0-.101 1.358c.369 1.133 1.719 1.889 5.482 3.762z"/><path d="M64.999 30.876c.305.375.63.759.982 1.14 6.025 6.517 7.434 8.346 6.631 9.766-.171.302-.702.978-1.976.715-.9-.186-2.263-.56-3.84-.992-2.559-.702-5.742-1.574-8.477-2.069-3.877-.702-4.794-.256-4.939-.159-.34.984-.482 2.821-.62 4.599-.282 3.629-.521 5.895-1.837 6.745-.316.204-.67.309-1.038.309-.237 0-.479-.043-.718-.131-1.512-.544-2.246-2.709-3.175-5.449-.889-2.62-2.107-6.208-3.657-6.217h-.01c-1.491 0-4.553 1.844-7.014 3.326-3.892 2.343-6.17 3.631-7.759 2.86-.373-.181-1.021-.647-1.157-1.729-.544-4.326 3.424-9.534 6.028-12.831-9.964 4.359-16.742 12.703-18.205 22.458-.977 6.518.7 15.043 3.456 19.47 3.283 5.271 8.783 9.41 16.951 12.261 3.91 1.364 9.208 2.862 14.19 3.516 19.747 2.594 34.822-9.172 37.02-25.753 1.754-13.227-6.924-25.96-20.836-31.835zm15.697 31.13c-.329 1.646-1.117 4.933-2.694 8.439-2.689 5.977-8.595 8.816-9.785 8.659h-.001a1.04 1.04 0 0 1-.29-.082.915.915 0 0 1-.542-.742c-.063-.601.312-.879 1.219-1.551 1.58-1.169 4.87-3.603 6.666-7.595 1.479-3.288 2.409-6.67 3.026-8.907.725-2.633.943-3.426 1.915-3.298l.129.018.137.058c.447.203 1.122.506.22 5.001z"/></g></g><rect id="ee-background" x="0" y="0" width="827.7840576171875" height="205.91676330566406" style="fill: white; fill-opacity: 0; pointer-events: none;"/></svg>