<?xml version="1.0" standalone="no"?>
<!DOCTYPE svg PUBLIC "-//W3C//DTD SVG 20010904//EN"
 "http://www.w3.org/TR/2001/REC-SVG-20010904/DTD/svg10.dtd">
<svg version="1.0" xmlns="http://www.w3.org/2000/svg"
 width="700.000000pt" height="700.000000pt" viewBox="0 0 700.000000 700.000000"
 preserveAspectRatio="xMidYMid meet">
<metadata>
Created by potrace 1.11, written by Peter Selinger 2001-2013
</metadata>
<g transform="translate(0.000000,700.000000) scale(0.100000,-0.100000)"
fill="#000000" stroke="none">
<path d="M0 3500 l0 -3500 3500 0 3500 0 0 3500 0 3500 -3500 0 -3500 0 0
-3500z m3264 2520 c23 -22 57 -68 74 -102 69 -138 76 -242 37 -518 -33 -231
-35 -211 23 -194 73 23 384 91 512 113 315 54 549 67 617 34 78 -36 94 -128
36 -201 -23 -29 -242 -184 -349 -248 -17 -10 -12 -20 61 -110 44 -54 151 -177
239 -274 170 -186 268 -301 262 -307 -2 -2 -55 10 -117 27 -202 55 -501 127
-604 146 -137 24 -315 25 -377 1 -102 -39 -127 -104 -153 -387 -20 -225 -35
-340 -45 -340 -10 0 -27 43 -105 262 -130 363 -223 478 -387 478 -116 0 -225
-47 -536 -232 -194 -115 -348 -195 -358 -185 -11 11 24 153 55 228 34 81 132
242 207 341 26 35 90 118 141 186 51 67 93 126 93 131 0 6 -96 58 -212 116
-237 119 -312 166 -345 215 -42 61 -25 137 36 164 180 80 560 18 967 -157 l81
-35 22 157 c53 358 52 393 -13 502 -41 69 -52 113 -36 154 33 87 102 101 174
35z m-960 -1252 c-4 -7 -33 -47 -64 -88 -209 -276 -313 -501 -313 -681 -1 -87
18 -130 73 -166 84 -57 177 -24 541 192 252 150 374 207 446 207 76 0 135 -97
243 -402 96 -269 134 -335 215 -365 49 -19 83 -15 126 16 61 43 88 145 114
436 21 235 31 295 52 311 26 18 154 15 294 -9 113 -19 354 -77 719 -175 149
-39 197 -40 236 -3 81 76 23 179 -309 546 -85 94 -158 176 -161 182 -20 32
260 -114 409 -214 160 -107 257 -186 385 -315 300 -300 499 -678 567 -1075 25
-146 22 -413 -6 -567 -114 -635 -492 -1144 -1059 -1428 -630 -314 -1364 -311
-2295 10 -418 144 -688 302 -933 545 -139 139 -224 254 -290 392 -81 171 -149
434 -175 670 -17 166 -7 480 21 607 75 348 239 651 494 915 165 170 339 300
556 415 109 58 126 64 114 44z"/>
<path d="M5477 3052 c-28 -6 -51 -63 -117 -292 -161 -555 -267 -742 -546 -961
-143 -112 -154 -123 -154 -157 0 -44 30 -66 81 -58 62 10 203 86 296 161 152
122 254 254 334 435 135 305 233 747 186 839 -12 25 -48 40 -80 33z"/>
</g>
</svg>
